<svg width="49" height="59" viewBox="0 0 49 59" fill="none" xmlns="http://www.w3.org/2000/svg">
<path d="M39.0714 29.7857C41.5 29.7857 46.3572 28.0857 46.3572 21.2857" stroke="#216553" stroke-width="2"/>
<path d="M46.3571 17.6428L46.3571 7.92856" stroke="#216553" stroke-width="2" stroke-dasharray="4 4"/>
<path d="M2.64285 51.6429L2.64285 41.9286" stroke="#216553" stroke-width="2" stroke-dasharray="4 4"/>
<path d="M9.92856 29.7857C7.49999 29.7857 2.64284 31.4857 2.64284 38.2857" stroke="#216553" stroke-width="2"/>
<circle cx="46.5" cy="2.5" r="2.5" fill="#216553"/>
<circle cx="2.5" cy="56.5" r="2.5" fill="#216553"/>
<mask id="path-7-inside-1_1_16349" fill="white">
<path fill-rule="evenodd" clip-rule="evenodd" d="M28.1426 17.6412H20.8569V26.1412H12.3569V33.4269H20.8569V41.9269H28.1426V33.4269H36.6426V26.1412H28.1426V17.6412Z"/>
</mask>
<path d="M20.8569 17.6412V15.6412H18.8569V17.6412H20.8569ZM28.1426 17.6412H30.1426V15.6412H28.1426V17.6412ZM20.8569 26.1412V28.1412H22.8569V26.1412H20.8569ZM12.3569 26.1412V24.1412H10.3569V26.1412H12.3569ZM12.3569 33.4269H10.3569V35.4269H12.3569V33.4269ZM20.8569 33.4269H22.8569V31.4269H20.8569V33.4269ZM20.8569 41.9269H18.8569V43.9269H20.8569V41.9269ZM28.1426 41.9269V43.9269H30.1426V41.9269H28.1426ZM28.1426 33.4269V31.4269H26.1426V33.4269H28.1426ZM36.6426 33.4269V35.4269H38.6426V33.4269H36.6426ZM36.6426 26.1412H38.6426V24.1412H36.6426V26.1412ZM28.1426 26.1412H26.1426V28.1412H28.1426V26.1412ZM20.8569 19.6412H28.1426V15.6412H20.8569V19.6412ZM22.8569 26.1412V17.6412H18.8569V26.1412H22.8569ZM12.3569 28.1412H20.8569V24.1412H12.3569V28.1412ZM14.3569 33.4269V26.1412H10.3569V33.4269H14.3569ZM20.8569 31.4269H12.3569V35.4269H20.8569V31.4269ZM22.8569 41.9269V33.4269H18.8569V41.9269H22.8569ZM28.1426 39.9269H20.8569V43.9269H28.1426V39.9269ZM26.1426 33.4269V41.9269H30.1426V33.4269H26.1426ZM36.6426 31.4269H28.1426V35.4269H36.6426V31.4269ZM34.6426 26.1412V33.4269H38.6426V26.1412H34.6426ZM28.1426 28.1412H36.6426V24.1412H28.1426V28.1412ZM26.1426 17.6412V26.1412H30.1426V17.6412H26.1426Z" fill="#216553" mask="url(#path-7-inside-1_1_16349)"/>
</svg>
