<svg width="54" height="59" viewBox="0 0 54 59" fill="none" xmlns="http://www.w3.org/2000/svg">
<path fill-rule="evenodd" clip-rule="evenodd" d="M27.069 58.362L0 44.974V13.581L27.076 0.167969L53.922 13.888V45.012L27.069 58.362ZM1.761 43.971L25.886 55.368V27.339L2.035 16.005L1.761 43.971ZM13.782 9.11397L36.781 20.545L42.773 18.389L18.325 7.02797L13.782 9.11397ZM37.877 22.76L37.939 29.987L42.921 28.112V20.268L37.877 22.76ZM27.238 2.31197L20.172 5.59196L43.955 17.393L50.794 13.886L27.238 2.31197ZM51.914 15.628L44.861 19.274V29.245L36.029 33.434V22.456L11.32 10.165L3 14.347L27.103 25.651L33.034 23.192L34.176 24.467L27.971 27.496V55.579L52.081 44.006L51.914 15.628ZM4.635 33.56L13.6 37.612V39.289L4.635 35.298V33.56ZM9.933 40.956L4.635 38.631V36.893L9.933 39.279V40.956Z" fill="#216553"/>
</svg>
