<svg width="56" height="58" viewBox="0 0 56 58" fill="none" xmlns="http://www.w3.org/2000/svg">
<path fill-rule="evenodd" clip-rule="evenodd" d="M47.7724 57.8549H7.97643C0.976426 57.7487 0.644574 50.4376 0.644574 50.4376V29.2163C0.625907 23.4253 6.78452 21.4609 6.78452 21.4609L6.87094 7.42169C7.52082 -0.871625 16.449 0.0286461 16.449 0.0286461H40.874C48.976 0.0890343 49.2 7.48139 49.2 7.48139V21.7545C55.089 22.4979 55.3656 29.7077 55.3656 29.7077V49.4283C55.5647 57.7084 47.7724 57.8549 47.7724 57.8549ZM2.16003 29.9486V34.0265C2.8825 32.6855 6.80526 32.2711 6.80526 32.2711L6.89169 23.3697C2.58452 23.8945 2.16003 29.9486 2.16003 29.9486ZM53.6828 29.5425C53.6337 24.0972 49.0037 23.2906 49.0037 23.2906L49.3763 32.0226C51.3861 31.9539 53.6828 34.1959 53.6828 34.1959V29.5425ZM53.6869 38.2849C53.8307 34.6672 49.4952 33.3699 49.4952 33.3699H14.7628V31.9761H27.4907V13.507H29.0331V32.0774L47.6915 31.9907V7.68823C46.9635 1.75492 41.2045 1.54738 41.2045 1.54738H14.2795C9.07914 2.72946 8.40645 8.00406 8.40645 8.00406L8.49287 32.7396H11.9414V34.1036H6.37317C2.46146 34.164 2.25959 37.2868 2.25959 37.2868L2.17317 50.8575C2.1787 54.6904 7.91835 56.255 7.91835 56.255H47.0824C53.6952 56.7131 53.6869 50.1217 53.6869 50.1217V38.2849ZM34.6234 48.8487H31.9168V51.0435C31.9168 51.0435 31.8463 53.2071 28.4365 53.364C28.4365 53.364 24.5586 54.115 24.0899 51.6897V49.1916H22.9837C22.9837 49.1916 19.5339 46.9385 19.6417 45.1539C19.6417 45.1539 19.6445 41.8583 22.542 41.659H24.1272V38.7125C24.1272 38.7125 25.5183 37.0223 28.1938 36.9113C28.1938 36.9113 32.1359 37.3264 31.961 39.8856V41.8319H34.1367C34.1367 41.8319 36.3415 42.0616 36.3823 44.877C36.3823 44.877 36.9298 48.5933 34.6234 48.8487ZM34.9007 45.2928C34.8896 43.5443 33.1052 43.0868 33.1052 43.0868L30.3107 43.1736V40.6838C30.5887 38.1912 28.1122 38.5015 28.1122 38.5015C26.1716 38.5779 25.5943 40.9254 25.5943 40.9254V43.1361L22.9824 43.1937C21.2623 43.2937 21.5602 45.3441 21.5602 45.3441C21.4738 46.7934 23.8514 47.4334 23.8514 47.4334H25.6607V49.9426C25.5259 51.1456 28.0777 51.7557 28.0777 51.7557C29.9506 51.7126 30.4041 50.4195 30.4041 50.4195V47.3869H33.5C35.0002 47.3369 34.9007 45.2928 34.9007 45.2928ZM12.2711 25.4077C12.2711 22.3175 14.7621 19.8117 17.8345 19.8117C20.9069 19.8117 23.3979 22.3175 23.3979 25.4077C23.3979 28.4986 20.9069 31.0043 17.8345 31.0043C14.7621 31.0043 12.2711 28.4986 12.2711 25.4077ZM17.8255 21.454C16.0176 21.454 14.5098 22.684 14.0459 24.3512H21.6059C21.1413 22.684 19.6341 21.454 17.8255 21.454ZM17.8255 29.3683C19.8567 29.3683 21.5098 27.8197 21.7241 25.8373L13.92 25.7651C14.1012 27.7822 15.7694 29.3683 17.8255 29.3683ZM17.8345 17.122C14.7621 17.122 12.2711 14.6162 12.2711 11.5253C12.2711 8.4351 14.7621 5.92934 17.8345 5.92934C20.9069 5.92934 23.3979 8.4351 23.3979 11.5253C23.3979 14.6162 20.9069 17.122 17.8345 17.122ZM17.8255 7.57162C16.0176 7.57162 14.5098 8.8016 14.0459 10.4689H21.6059C21.1413 8.8016 19.6341 7.57162 17.8255 7.57162ZM13.92 11.8828C14.1012 13.8999 15.7694 15.486 17.8255 15.486C19.8567 15.486 21.5098 13.9374 21.7241 11.955L13.92 11.8828ZM28.928 11.1665H27.4976V6.03276H28.928V11.1665ZM38.5752 5.92934C41.6476 5.92934 44.1386 8.4351 44.1386 11.5253C44.1386 14.6162 41.6476 17.122 38.5752 17.122C35.5028 17.122 33.0119 14.6162 33.0119 11.5253C33.0119 8.4351 35.5028 5.92934 38.5752 5.92934ZM38.5663 7.57162C36.7584 7.57162 35.2505 8.8016 34.7866 10.4689H42.3466C41.882 8.8016 40.3748 7.57162 38.5663 7.57162ZM38.5663 15.486C40.5975 15.486 42.2505 13.9374 42.4648 11.955L34.6608 11.8828C34.8419 13.8999 36.5102 15.486 38.5663 15.486ZM38.5752 19.8117C41.6476 19.8117 44.1386 22.3175 44.1386 25.4077C44.1386 28.4986 41.6476 31.0043 38.5752 31.0043C35.5028 31.0043 33.0119 28.4986 33.0119 25.4077C33.0119 22.3175 35.5028 19.8117 38.5752 19.8117ZM38.5663 21.454C36.7584 21.454 35.2505 22.684 34.7866 24.3512H42.3466C41.882 22.684 40.3748 21.454 38.5663 21.454ZM38.5663 29.3683C40.5975 29.3683 42.2505 27.8197 42.4648 25.8373L34.6608 25.7651C34.8419 27.7822 36.5102 29.3683 38.5663 29.3683Z" fill="#216553"/>
</svg>
