<svg width="57" height="60" viewBox="0 0 57 60" fill="none" xmlns="http://www.w3.org/2000/svg">
<path fill-rule="evenodd" clip-rule="evenodd" d="M56.8588 31.3693C56.8588 31.3693 55.4995 38.5 48.2877 39.5315H45.2384V44.7129L43.4168 45.2893L42.1644 47.7268L42.6306 51.69L39.2558 55.4657L35.7049 54.6418L32.7308 55.6618L31.8479 58.1615L26.0146 59.0122L24.6344 56.3272L22.3939 54.869L17.5638 55.83L13.9163 51.569L15.3963 49.4518L14.6928 46.2118L10.7703 44.6025L10.9475 39.5979H8.58455C8.58455 39.5979 0.564441 39.4457 0.0607002 31.2836C0.0607002 31.2836 -0.500458 25.8192 4.09277 23.46C4.09277 23.46 0.368959 8.4161 16.9011 8.90574C16.9011 8.90574 19.611 0.632168 29.0682 0.874311C29.0682 0.874311 35.9995 8.24928e-05 39.7907 8.26502C39.7907 8.26502 53.8213 7.56967 52.512 22.3329C52.512 22.3329 57.1359 25.2525 56.8588 31.3693ZM15.74 44.6025L17.5703 49.2065L16.5456 50.9647L19.4112 53.9057L22.2973 52.3286L26.3873 54.6954L27.2122 56.4654L30.5333 56.1322L31.1466 54.24L36.2538 52.4872L38.577 52.8225L40.5608 50.4043L39.896 48.3504L41.4942 43.889L43.3631 43.1336L43.0054 39.7243H37.8574V43.2922C37.8391 50.7354 28.0822 51.4918 28.0822 51.4918C20.4746 51.1597 18.4231 43.5257 18.4231 43.5257V39.6504H13.1751L12.9915 43.5793L15.74 44.6025ZM49.8967 23.1322C52.512 10.71 40.9995 10.4432 40.9995 10.4432H37.9583C36.4995 3.00092 28.9619 3.23788 28.9619 3.23788C22.2719 2.50092 17.9569 10.8354 17.9569 10.8354C1.99952 10.4432 6.49952 24.5001 6.49952 24.5001C1.99952 25.8193 1.99952 30.66 1.99952 30.66C2.49952 36.5001 7.49952 37.4829 7.49952 37.4829L23.8514 37.5975L23.6377 39.6911H20.8226L20.4874 43.0715C20.7721 47.8554 28.094 49.4004 28.094 49.4004C34.5771 49.6822 35.9896 43.0768 35.9896 43.0768L35.8102 39.6986H32.3839V37.4829H46.6691C53.4995 37.4829 54.5528 30.66 54.5528 30.66C54.5528 25.8193 49.8967 23.1322 49.8967 23.1322ZM39.8723 17.2457H42.0312V29.7847H39.8723V17.2457ZM31.8039 25.8193H29.1982V30.0172L26.9254 30.2175V17.069L32.0112 17.0443C36.2978 17.8425 35.561 21.5068 35.561 21.5068C35.3354 24.7532 31.8039 25.8193 31.8039 25.8193ZM29.181 19.1497V23.5307C32.4494 24.3407 33.5009 21.06 33.5009 21.06C33.3935 18.4318 29.181 19.1497 29.181 19.1497ZM20.3048 27.194L15.74 27.209L14.0656 30.4297H11.7316L17.8581 16.8247L24.0458 30.0129L21.8977 30.239L20.3048 27.194ZM17.8227 21.4532L16.5886 25.0275L19.1019 25.2129L17.8227 21.4532ZM28.5269 37.949C29.2669 37.949 29.8663 38.5468 29.8663 39.285C29.8663 40.0232 29.2669 40.6222 28.5269 40.6222C27.7868 40.6222 27.1875 40.0232 27.1875 39.285C27.1875 38.5468 27.7868 37.949 28.5269 37.949Z" fill="#216553"/>
</svg>
