<svg width="54" height="54" viewBox="0 0 54 54" fill="none" xmlns="http://www.w3.org/2000/svg">
<path fill-rule="evenodd" clip-rule="evenodd" d="M47.4331 53.2118C47.4331 53.2118 41.4181 52.9098 41.2371 47.5078L40.2701 46.4418L35.9451 52.0388C35.9451 52.0388 31.5561 54.7878 28.1401 51.9308C28.1401 51.9308 23.6061 47.2148 26.3701 43.9008L26.5591 43.2928L37.7111 32.8608C37.7111 32.8608 41.2581 31.7258 43.8751 33.7378C43.8751 33.7378 48.3011 36.7238 46.0561 41.0718C46.0561 41.0718 53.8571 40.9348 53.4081 46.7058C53.4081 46.7058 53.7651 52.1218 47.4331 53.2118ZM28.6261 44.0708C26.0801 46.5048 28.7361 49.6158 28.7361 49.6158C31.3741 52.2158 34.6251 50.8488 34.6251 50.8488L38.6591 46.2768L32.2941 40.3598L28.6261 44.0708ZM42.7521 35.1648C40.8061 33.6798 37.8251 34.9368 37.8251 34.9368L33.5091 39.2308L39.8681 44.8938L43.3231 41.7728C46.0711 38.0858 42.7521 35.1648 42.7521 35.1648ZM42.5001 46.6628C42.5001 46.6628 43.2081 50.5488 46.4231 51.4388L46.5661 42.9238C46.5661 42.9238 42.8661 43.3728 42.5001 46.6628ZM48.3901 42.9698L48.2471 51.4778C50.8871 50.8458 51.7581 46.9278 51.7581 46.9278C51.6991 43.5808 48.3901 42.9698 48.3901 42.9698ZM6.78407 28.8338H12.0651V30.8958H6.78407V28.8338ZM12.0341 42.8338H6.94007V40.8648H12.0341V42.8338ZM6.94007 34.8338H11.8771V36.8648H6.94007V34.8338ZM15.9621 42.8128L15.8371 40.8598H18.0211L18.1461 42.8128H15.9621ZM15.8151 34.9268H27.1901V36.7708H15.8151V34.9268ZM12.1591 16.4738C12.1591 11.3048 16.3491 7.1148 21.5181 7.1148C26.6871 7.1148 30.8771 11.3048 30.8771 16.4738C30.8771 21.6428 26.6871 25.8338 21.5181 25.8338C16.3491 25.8338 12.1591 21.6428 12.1591 16.4738ZM28.6611 16.4738C28.6611 12.5238 25.4581 9.3218 21.5081 9.3218C17.5581 9.3218 14.3561 12.5238 14.3561 16.4738C14.3561 20.4238 17.5581 23.6258 21.5081 23.6258C25.4581 23.6258 28.6611 20.4238 28.6611 16.4738ZM20.6271 21.2088V17.1458H16.7841V15.4278H20.6271V11.6458H22.4711V15.4278H26.0961V17.1458H22.4711V21.2088H20.6271ZM35.7841 30.9898H15.9711V28.8648H35.7841V30.9898ZM40.9501 10.7868H34.0061C34.0061 10.7868 31.0521 11.2188 31.0181 8.3208V1.7648H4.73707C4.73707 1.7648 1.96307 1.5418 1.80807 4.6978V48.7858C1.80807 48.7858 2.03007 51.8148 4.44507 51.8498L23.1771 51.9788V53.8178H4.24707C4.24707 53.8178 -0.225933 53.6118 0.107067 49.9378V3.7538C0.107067 3.7538 -0.282933 -0.0202022 3.69107 0.0277978H32.5351L42.8611 10.1378V29.9638H40.9501V10.7868ZM32.9411 3.7498L32.8571 7.8918L34.6381 8.9318H38.6481L32.9411 3.7498Z" fill="#216553"/>
</svg>
