<svg version="1.2" xmlns="http://www.w3.org/2000/svg" viewBox="0 0 347 511" width="347" height="511"><defs><clipPath clipPathUnits="userSpaceOnUse" id="cp1"><path d="m211.39 193.45v-29.58c0 0 4.81-47.7-38.85-47.16 0 0-39.19-0.78-34.57 45.69v79.54h66.32v33.32h-67.78v77.13c0 0-4.47 46.75 36.77 47.31 0 0 39.77 4.64 38.53-43.38v-40.47h29.79v54.91c0 0 0.49 60.43-69.77 61.11 0 0-71.01 0.9-68.57-75.74v-202.69c0 0-1.31-66.59 71.82-68.34 0 0 64.62 1.07 67.53 75.54v33.51z"/></clipPath></defs><style>.a{fill:#d0edf7}.b{fill:#b0f6e4}.c{fill:#27e4af}.d{fill:#8ec6ed}.e{fill:#fee12c}.f{fill:#ffed7a}</style><path class="a" d="m188.2 193.6v-41c0 0-2.4-15.7-21.5-15.5-9.7 0.1-18.4 1.9-29.9 19.7 0 0-8.9-62.5 57.9-43.3 0 0 28.8 7.7 28.4 44.3v35.9z"/><path class="a" d="m158.3 317.9v41c0 0 2.3 15.7 21.5 15.5 9.7-0.1 18.4-1.9 29.9-19.7 0 0 8.9 62.5-57.9 43.3 0 0-28.8-7.7-28.4-44.3v-35.8z"/><path class="b" d="m0.2 275.3v-134.2c7.8-154.7 183.9-131.6 183.9-131.6-154 11.9-153.8 123.1-153.8 123.1l-2 143z"/><path class="b" d="m346.5 242.6v143.2c-6.9 147.6-187 123.5-187 123.5 162.5-14.7 154.8-122.1 154.8-122.1l3-145z"/><path class="c" d="m281.3 195v-50.1c0 0-11.4-102.6-107.1-102.7 0 0-105.1-3.5-111.2 100.7v98.9h41.6v33.4h-75.5v-127.9c0 0-4.6-134.7 144.1-137.8 0 0 130.5-5.3 143.3 139.4v46.6zm35.9 47.4v127.5c-7.9 128.8-119.4 138.2-141.5 137.8-146.1-4.5-146.3-136-146.3-136v-54.8h34.7v53.7c3.3 103.5 105 102.8 105 102.8 110.9-0.4 113.9-95 113.9-95v-103.6h-34.5v-32.1z"/><g clip-path="url(#cp1)"><path class="d" d="m211.4 193.4v-29.5c0 0 4.8-47.7-38.9-47.2 0 0-39.1-0.8-34.5 45.7v79.5h66.3v33.4h-67.8v77.1c0 0-4.5 46.7 36.8 47.3 0 0 39.7 4.6 38.5-43.4v-40.4h29.8v54.9c0 0 0.5 60.4-69.8 61.1 0 0-71 0.9-68.5-75.8v-202.7c0 0-1.3-66.6 71.8-68.3 0 0 64.6 1.1 67.5 75.5v33.6z"/><path class="e" d="m137.3 240.6h67.4v34.8h-67.4z"/></g><path class="f" d="m136.7 280.8h68.6v8.5h-68.6z"/><path class="b" d="m19 316.7v39.5c0 0-10.2 125.2 100.3 149.1 0 0-122.2 0.2-117.9-149.5v-39.4z"/><path class="b" d="m325.6 196v-40.5c0 0 7.3-133-136.9-155.3 0 0 153.6 1.8 154.5 155.6v40.5z"/></svg>